<svg width="16" height="16" viewBox="0 0 16 16" fill="none" xmlns="http://www.w3.org/2000/svg">
<path d="M14.5 7.5C14.4999 6.16266 14.0529 4.8637 13.2302 3.80939C12.4074 2.75508 11.2561 2.00586 9.95885 1.6807C8.66164 1.35554 7.29298 1.47308 6.07021 2.01465C4.84744 2.55623 3.84065 3.49079 3.20972 4.66994C2.57878 5.84909 2.35987 7.20523 2.58774 8.52301C2.81562 9.84079 3.47722 11.0447 4.46748 11.9435C5.45774 12.8423 6.7199 13.3845 8.05353 13.484C9.38716 13.5835 10.7158 13.2346 11.8285 12.4927L12.661 13.7407C11.4297 14.564 9.98122 15.0024 8.5 15C4.35775 15 1 11.6422 1 7.5C1 3.35775 4.35775 0 8.5 0C12.6423 0 16 3.35775 16 7.5V8.62499C16.0001 9.18656 15.8201 9.73335 15.4864 10.185C15.1528 10.6367 14.683 10.9695 14.1463 11.1345C13.6095 11.2995 13.0339 11.288 12.5042 11.1017C11.9744 10.9154 11.5184 10.5641 11.203 10.0995C10.7024 10.62 10.0622 10.9849 9.35929 11.1503C8.65635 11.3158 7.9206 11.2748 7.24042 11.0322C6.56024 10.7896 5.96457 10.3558 5.52498 9.78285C5.08538 9.20993 4.82056 8.52226 4.76233 7.80247C4.7041 7.08268 4.85494 6.36139 5.19672 5.72525C5.5385 5.08911 6.05669 4.56519 6.68903 4.21642C7.32137 3.86766 8.04096 3.70889 8.76134 3.7592C9.48173 3.8095 10.1723 4.06674 10.75 4.5H12.25V8.62499C12.25 8.92336 12.3685 9.20951 12.5795 9.42049C12.7905 9.63147 13.0766 9.74999 13.375 9.74999C13.6734 9.74999 13.9595 9.63147 14.1705 9.42049C14.3815 9.20951 14.5 8.92336 14.5 8.62499V7.5ZM8.5 5.25C7.90326 5.25 7.33097 5.48705 6.90901 5.90901C6.48705 6.33096 6.25 6.90326 6.25 7.5C6.25 8.09673 6.48705 8.66903 6.90901 9.09098C7.33097 9.51294 7.90326 9.74999 8.5 9.74999C9.09674 9.74999 9.66903 9.51294 10.091 9.09098C10.5129 8.66903 10.75 8.09673 10.75 7.5C10.75 6.90326 10.5129 6.33096 10.091 5.90901C9.66903 5.48705 9.09674 5.25 8.5 5.25Z" fill="#B6B6B6"/>
</svg>
