<svg width="20" height="21" viewBox="0 0 20 21" fill="none" xmlns="http://www.w3.org/2000/svg">
<g clip-path="url(#clip0_627_691)">
<path d="M7.1416 8.05848L10.027 10.2365L12.8557 8.06088L13.4443 8.66608L10.0328 11.2901L6.55885 8.66808L7.1416 8.05848Z" fill="#3139CE"/>
<path fill-rule="evenodd" clip-rule="evenodd" d="M10 19.3633C14.9706 19.3633 19 15.3338 19 10.3633C19 5.39272 14.9706 1.36328 10 1.36328C5.02944 1.36328 1 5.39272 1 10.3633C1 15.3338 5.02944 19.3633 10 19.3633ZM14.3682 6.88044C14.2838 6.80542 14.1693 6.76328 14.05 6.76328H5.95C5.83065 6.76328 5.71619 6.80542 5.6318 6.88044C5.54741 6.95545 5.5 7.05719 5.5 7.16328V13.5633C5.5 13.6694 5.54741 13.7711 5.6318 13.8461C5.71619 13.9211 5.83065 13.9633 5.95 13.9633H14.05C14.1693 13.9633 14.2838 13.9211 14.3682 13.8461C14.4526 13.7711 14.5 13.6694 14.5 13.5633V7.16328C14.5 7.05719 14.4526 6.95545 14.3682 6.88044Z" fill="#3139CE"/>
</g>
<defs>
<clipPath id="clip0_627_691">
<rect width="20" height="20" fill="white" transform="translate(0 0.363281)"/>
</clipPath>
</defs>
</svg>
