<svg width="44" height="44" viewBox="0 0 44 44" fill="none" xmlns="http://www.w3.org/2000/svg">
<rect x="3" y="3" width="38" height="38" rx="19" fill="#515165"/>
<path fill-rule="evenodd" clip-rule="evenodd" d="M22.0017 17.8969C19.7315 17.8969 17.9004 19.7285 17.9004 21.9991C17.9004 24.2698 19.7315 26.1013 22.0017 26.1013C24.2718 26.1013 26.103 24.2698 26.103 21.9991C26.103 19.7285 24.2718 17.8969 22.0017 17.8969ZM22.0018 24.666C20.5347 24.666 19.3354 23.47 19.3354 21.999C19.3354 20.5281 20.5312 19.3321 22.0018 19.3321C23.4724 19.3321 24.6682 20.5281 24.6682 21.999C24.6682 23.47 23.4688 24.666 22.0018 24.666ZM27.2277 17.7288C27.2277 18.2608 26.7993 18.6856 26.2711 18.6856C25.7392 18.6856 25.3145 18.2572 25.3145 17.7288C25.3145 17.2004 25.7428 16.772 26.2711 16.772C26.7993 16.772 27.2277 17.2004 27.2277 17.7288ZM29.9438 18.7001C29.8831 17.4184 29.5904 16.2831 28.6516 15.3477C27.7165 14.4123 26.5814 14.1195 25.2999 14.0553C23.9793 13.9803 20.0207 13.9803 18.7001 14.0553C17.4222 14.1159 16.2871 14.4087 15.3484 15.3441C14.4096 16.2795 14.1205 17.4148 14.0562 18.6966C13.9813 20.0175 13.9813 23.9769 14.0562 25.2979C14.1169 26.5796 14.4096 27.715 15.3484 28.6504C16.2871 29.5858 17.4186 29.8785 18.7001 29.9428C20.0207 30.0178 23.9793 30.0178 25.2999 29.9428C26.5814 29.8821 27.7165 29.5893 28.6516 28.6504C29.5868 27.715 29.8795 26.5796 29.9438 25.2979C30.0187 23.9769 30.0187 20.0211 29.9438 18.7001ZM28.2375 26.7151C27.9591 27.4148 27.4201 27.9539 26.717 28.236C25.664 28.6537 23.1654 28.5573 22.0017 28.5573C20.8381 28.5573 18.3359 28.6501 17.2865 28.236C16.5869 27.9575 16.0479 27.4184 15.7659 26.7151C15.3483 25.6619 15.4447 23.1627 15.4447 21.9988C15.4447 20.8349 15.3519 18.3322 15.7659 17.2825C16.0443 16.5828 16.5833 16.0436 17.2865 15.7616C18.3395 15.3439 20.8381 15.4403 22.0017 15.4403C23.1654 15.4403 25.6675 15.3475 26.717 15.7616C27.4166 16.0401 27.9555 16.5792 28.2375 17.2825C28.6552 18.3357 28.5588 20.8349 28.5588 21.9988C28.5588 23.1627 28.6552 25.6654 28.2375 26.7151Z" fill="#F4F4F9"/>
</svg>
