<svg width="16" height="16" viewBox="0 0 16 16" fill="none" xmlns="http://www.w3.org/2000/svg">
<path d="M5.95133 6.67753C6.68115 7.95968 7.74296 9.02149 9.02511 9.7513L9.71267 8.78841C9.82323 8.63359 9.98672 8.52465 10.1722 8.48223C10.3576 8.4398 10.5522 8.46683 10.7191 8.55819C11.8191 9.15936 13.0339 9.52091 14.2837 9.61908C14.4787 9.63454 14.6608 9.72294 14.7935 9.86666C14.9263 10.0104 15 10.1989 15 10.3945V13.865C15 14.0575 14.9286 14.2433 14.7996 14.3862C14.6706 14.5292 14.4931 14.6192 14.3016 14.6389C13.8893 14.6816 13.474 14.7026 13.0556 14.7026C6.39778 14.7026 1 9.30486 1 2.64708C1 2.22864 1.021 1.8133 1.06378 1.40108C1.08342 1.20951 1.17343 1.03204 1.31639 0.903019C1.45935 0.773996 1.64509 0.702595 1.83767 0.702637H5.30811C5.50377 0.702612 5.69225 0.776332 5.83597 0.909098C5.9797 1.04186 6.0681 1.22392 6.08356 1.41897C6.18173 2.6687 6.54328 3.8835 7.14444 4.98353C7.23581 5.15041 7.26283 5.34499 7.22041 5.53046C7.17798 5.71592 7.06905 5.8794 6.91422 5.98997L5.95133 6.67753ZM3.98978 6.16653L5.46756 5.11108C5.04816 4.20582 4.76083 3.24507 4.61433 2.25819H2.56333C2.55867 2.3873 2.55633 2.51719 2.55633 2.64708C2.55556 8.44619 7.25644 13.1471 13.0556 13.1471C13.1854 13.1471 13.3153 13.1447 13.4444 13.1393V11.0883C12.4576 10.9418 11.4968 10.6545 10.5916 10.2351L9.53611 11.7129C9.11118 11.5477 8.69845 11.3528 8.301 11.1295L8.25589 11.1039C6.73034 10.2356 5.467 8.9723 4.59878 7.44675L4.57311 7.40164C4.34982 7.00419 4.15489 6.59145 3.98978 6.16653Z" fill="#B6B6B6"/>
</svg>
