<svg width="20" height="21" viewBox="0 0 20 21" fill="none" xmlns="http://www.w3.org/2000/svg">
<g clip-path="url(#clip0_627_687)">
<path d="M10 19C5.0293 19 1 14.9707 1 10C1 5.0293 5.0293 1 10 1C14.9707 1 19 5.0293 19 10C19 14.9707 14.9707 19 10 19ZM7.201 11.053L7.2127 11.0467L7.9957 13.6297C8.0965 13.9096 8.2351 13.96 8.4034 13.9366C8.5726 13.9141 8.6617 13.8232 8.7724 13.717L9.8416 12.6838L12.1366 14.383C12.556 14.6143 12.8575 14.4946 12.9619 13.9942L14.4532 6.9544C14.6179 6.2992 14.3299 6.0364 13.8214 6.2452L5.0617 9.6292C4.4641 9.8686 4.4677 10.2034 4.9537 10.3519L7.201 11.053Z" fill="#3139CE"/>
</g>
<defs>
<clipPath id="clip0_627_687">
<rect width="20" height="20" fill="white" transform="translate(0 0.363281)"/>
</clipPath>
</defs>
</svg>
