<svg width="44" height="44" viewBox="0 0 44 44" fill="none" xmlns="http://www.w3.org/2000/svg">
<rect x="3" y="3" width="38" height="38" rx="19" fill="#515165"/>
<path d="M30 17.5591C29.3705 17.8302 28.7409 17.9994 28.1117 18.0674C28.8224 17.6406 29.3031 17.0375 29.5535 16.2583C28.9035 16.6444 28.2099 16.9086 27.4722 17.051C26.8224 16.3599 26.0239 16.0142 25.0761 16.0142C24.1693 16.0142 23.3961 16.3343 22.7563 16.9746C22.1168 17.615 21.797 18.389 21.797 19.297C21.797 19.5409 21.824 19.7916 21.8782 20.0491C20.538 19.9814 19.2809 19.6443 18.1065 19.0378C16.9322 18.4313 15.9356 17.6233 15.1167 16.6137C14.8189 17.1218 14.6699 17.6741 14.6699 18.2704C14.6699 18.8328 14.8019 19.3546 15.066 19.8357C15.3299 20.3167 15.6853 20.7063 16.132 21.0044C15.604 20.9841 15.11 20.8451 14.6498 20.5877V20.6283C14.6498 21.4211 14.8985 22.1172 15.3959 22.7171C15.8934 23.3168 16.5212 23.6944 17.2792 23.8503C16.9949 23.9247 16.7072 23.962 16.4162 23.962C16.2267 23.962 16.0202 23.9451 15.7969 23.9115C16.0067 24.5686 16.3925 25.1088 16.9542 25.5325C17.516 25.956 18.1522 26.1743 18.8629 26.1881C17.6717 27.1231 16.3147 27.5905 14.7919 27.5905C14.5008 27.5905 14.2369 27.5772 14 27.55C15.5229 28.5324 17.2014 29.0236 19.0356 29.0236C20.1997 29.0236 21.2928 28.8391 22.3145 28.4697C23.3366 28.1006 24.2097 27.6059 24.9339 26.9858C25.658 26.3658 26.2825 25.6526 26.8069 24.8463C27.3314 24.04 27.7222 23.1982 27.9796 22.3207C28.2367 21.4431 28.3653 20.5641 28.3653 19.6831C28.3653 19.4933 28.3619 19.3511 28.3551 19.2562C28.9983 18.7889 29.5465 18.223 30 17.5591Z" fill="#F4F4F9"/>
</svg>
