<svg width="44" height="44" viewBox="0 0 44 44" fill="none" xmlns="http://www.w3.org/2000/svg">
<rect x="3" y="3" width="38" height="38" rx="19" fill="#515165"/>
<path fill-rule="evenodd" clip-rule="evenodd" d="M29.6657 18.7202C29.4817 18.0427 28.9395 17.5091 28.2511 17.328C27.0033 16.999 22 16.999 22 16.999C22 16.999 16.9967 16.999 15.7489 17.328C15.0605 17.5091 14.5183 18.0427 14.3343 18.7202C14 19.9481 14 22.5101 14 22.5101C14 22.5101 14 25.0722 14.3343 26.3001C14.5183 26.9776 15.0605 27.4889 15.7489 27.67C16.9967 27.999 22 27.999 22 27.999C22 27.999 27.0033 27.999 28.2511 27.67C28.9395 27.4889 29.4817 26.9776 29.6657 26.3001C30 25.0722 30 22.5101 30 22.5101C30 22.5101 30 19.9481 29.6657 18.7202ZM20 24.999V19.999L24 22.4991L20 24.999Z" fill="#F4F4F9"/>
</svg>
