<svg width="30" height="30" viewBox="0 0 30 30" fill="none" xmlns="http://www.w3.org/2000/svg">
<path d="M15 0C23.283 0 30 6.717 30 15C30 23.283 23.283 30 15 30C6.717 30 0 23.283 0 15C0 6.717 6.717 0 15 0Z" fill="black"/>
<path fill-rule="evenodd" clip-rule="evenodd" d="M6.93606 13.569H20.8171C20.9911 13.569 21.1561 13.638 21.2761 13.761L23.4721 15.972C23.8771 16.38 23.5891 17.076 23.0131 17.076H9.13206C8.95806 17.076 8.79306 17.007 8.67306 16.884L6.47705 14.673C6.06905 14.265 6.36005 13.569 6.93606 13.569ZM6.47705 10.638L8.67306 8.42699C8.79606 8.30399 8.96106 8.23499 9.13206 8.23499H23.0101C23.5861 8.23499 23.8771 8.93098 23.4691 9.33898L21.2761 11.55C21.1531 11.673 20.9881 11.742 20.8171 11.742H6.93606C6.36005 11.742 6.06905 11.046 6.47705 10.638ZM23.4691 20.007L21.2731 22.218C21.1501 22.341 20.9851 22.41 20.8141 22.41H6.93606C6.36005 22.41 6.06905 21.714 6.47705 21.306L8.67306 19.095C8.79606 18.972 8.96106 18.903 9.13206 18.903H23.0101C23.5861 18.903 23.8771 19.599 23.4691 20.007Z" fill="url(#paint0_linear_608_351)"/>
<defs>
<linearGradient id="paint0_linear_608_351" x1="7.27565" y1="23.0199" x2="22.6705" y2="7.62507" gradientUnits="userSpaceOnUse">
<stop stop-color="#CB4EE8"/>
<stop offset="1" stop-color="#10F4B1"/>
</linearGradient>
</defs>
</svg>
