<svg width="30" height="30" viewBox="0 0 30 30" fill="none" xmlns="http://www.w3.org/2000/svg">
<path d="M29.9497 14.9254C29.9497 23.1687 23.2674 29.8507 15.0243 29.8507C6.78103 29.8507 0.098938 23.1687 0.098938 14.9254C0.098938 6.68224 6.78103 0 15.0243 0C23.2674 0 29.9497 6.68224 29.9497 14.9254Z" fill="#020100"/>
<path d="M24.3727 11.6482C23.5295 11.0585 22.6279 10.4297 21.7457 9.8059C21.7262 9.79128 21.7067 9.77666 21.6823 9.76204C21.5849 9.68893 21.4728 9.61095 21.3363 9.56708L21.3266 9.56221C18.9676 8.99198 16.5697 8.40712 14.2498 7.84177C12.1443 7.33002 10.0437 6.81827 7.93828 6.30652C7.88466 6.2919 7.83105 6.27728 7.77257 6.26266C7.58249 6.20905 7.36317 6.15056 7.12923 6.17981C7.061 6.18955 7.00251 6.21392 6.9489 6.24804L6.89041 6.29678C6.79781 6.3845 6.74907 6.4966 6.7247 6.55996L6.71008 6.59895V6.82314L6.71983 6.85726C8.05037 10.5857 9.41503 14.3678 10.731 18.028C11.7447 20.845 12.7974 23.7644 13.8258 26.6302C13.8892 26.8251 14.0695 26.9519 14.2937 26.9714H14.3424C14.552 26.9714 14.7372 26.869 14.8298 26.7033L18.6898 21.0741C19.6305 19.7045 20.5711 18.3301 21.5118 16.9606C21.8968 16.4001 22.2818 15.8348 22.6668 15.2743C23.3004 14.3483 23.9535 13.393 24.6017 12.4621L24.6358 12.4134V12.3549C24.6505 12.1843 24.6553 11.8334 24.3727 11.6482ZM19.8498 13.7001C18.9433 14.1728 18.0173 14.6602 17.0864 15.1427C17.6274 14.5627 18.1732 13.9779 18.7142 13.3979C19.3917 12.6668 20.0984 11.9114 20.7904 11.1706L20.8051 11.1559C20.8635 11.078 20.9366 11.0048 21.0146 10.9269C21.0682 10.8733 21.1267 10.8196 21.1803 10.7563C21.541 11.0049 21.9065 11.2583 22.2574 11.5068C22.5109 11.6872 22.7692 11.8675 23.0324 12.0478C21.9601 12.5937 20.8879 13.1542 19.8498 13.7001ZM17.5201 13.4661C16.8232 14.2215 16.1019 14.9965 15.3854 15.7617C13.9964 14.0753 12.5781 12.3646 11.2037 10.7124C10.5799 9.96186 9.95115 9.20642 9.3273 8.45586L9.32243 8.45099C9.18109 8.29015 9.04462 8.1147 8.90816 7.94899C8.82043 7.83689 8.72783 7.72967 8.63523 7.61757C9.20059 7.76378 9.77082 7.90025 10.3313 8.03184C10.8236 8.14881 11.3353 8.27066 11.8373 8.39738C14.6641 9.08458 17.4958 9.77178 20.3226 10.459C19.3819 11.463 18.4364 12.4816 17.5201 13.4661ZM15.0686 22.9651C15.1222 22.4534 15.1807 21.927 15.2295 21.4104C15.2733 20.9961 15.3172 20.5721 15.361 20.1676C15.4293 19.5193 15.5024 18.8468 15.5609 18.1888L15.5755 18.0718C15.6242 17.6527 15.673 17.2189 15.7022 16.7852C15.7558 16.7559 15.8143 16.7267 15.8777 16.7023C15.9508 16.6682 16.0239 16.6389 16.097 16.5951C17.2228 16.0054 18.3487 15.4156 19.4794 14.8308C20.6052 14.2459 21.7603 13.6416 22.9057 13.0421C21.8627 14.553 20.8148 16.0785 19.8011 17.565C18.9287 18.837 18.0319 20.1481 17.14 21.4396C16.7891 21.9562 16.4235 22.4826 16.0775 22.9895C15.6876 23.5548 15.2879 24.1348 14.898 24.7148C14.9468 24.1299 15.0053 23.5402 15.0686 22.9651ZM8.27457 8.76778C8.21121 8.59233 8.14297 8.412 8.08449 8.24142C9.40041 9.83027 10.7261 11.4289 12.0176 12.9787C12.6853 13.7829 13.353 14.5822 14.0208 15.3913C14.1523 15.5423 14.2839 15.7032 14.4107 15.8591C14.5764 16.059 14.7421 16.2685 14.9224 16.4684C14.8639 16.9704 14.8152 17.4772 14.7616 17.9646C14.7275 18.3058 14.6933 18.6469 14.6543 18.993V18.9979C14.6397 19.2172 14.6105 19.4365 14.5861 19.6509C14.552 19.9482 14.474 20.6208 14.474 20.6208L14.4691 20.6549C14.3814 21.6394 14.2742 22.6337 14.1718 23.5987C14.128 23.9984 14.089 24.4077 14.0451 24.8171C14.0208 24.744 13.9915 24.6709 13.9671 24.6027C13.894 24.4077 13.8209 24.2031 13.7527 24.0032L13.2312 22.5557C11.579 17.9597 9.92678 13.3686 8.27457 8.76778Z" fill="white"/>
</svg>
