<svg width="30" height="30" viewBox="0 0 30 30" fill="none" xmlns="http://www.w3.org/2000/svg">
<path d="M15 30C23.2843 30 30 23.2843 30 15C30 6.71573 23.2843 0 15 0C6.71573 0 0 6.71573 0 15C0 23.2843 6.71573 30 15 30Z" fill="#767DFF"/>
<path fill-rule="evenodd" clip-rule="evenodd" d="M12.9094 6.09375H17.0906C17.2355 6.09368 17.3778 6.1322 17.5029 6.20536C17.6279 6.27852 17.7313 6.38367 17.8022 6.51L24.2766 18.0591C24.3447 18.1808 24.3805 18.318 24.3805 18.4575C24.3805 18.597 24.3447 18.7342 24.2766 18.8559L22.2047 22.5516C22.134 22.6779 22.0308 22.7832 21.9059 22.8565C21.7811 22.9298 21.6389 22.9686 21.4941 22.9688H8.50595C8.36097 22.9687 8.21861 22.9301 8.09354 22.8567C7.96847 22.7834 7.86521 22.6781 7.79439 22.5516L5.72345 18.8559C5.65529 18.7342 5.61951 18.597 5.61951 18.4575C5.61951 18.318 5.65529 18.1808 5.72345 18.0591L12.1978 6.51C12.2688 6.38367 12.3721 6.27852 12.4971 6.20536C12.6222 6.1322 12.7645 6.09368 12.9094 6.09375ZM15 10.6884L10.6378 18.4575H19.3622L15 10.6884Z" fill="white"/>
</svg>
