<svg width="30" height="30" viewBox="0 0 30 30" fill="none" xmlns="http://www.w3.org/2000/svg">
<path d="M15 29.5082C23.2843 29.5082 30 22.9026 30 14.7541C30 6.60564 23.2843 0 15 0C6.71573 0 0 6.60564 0 14.7541C0 22.9026 6.71573 29.5082 15 29.5082Z" fill="#0E0E21"/>
<path d="M23.3749 18.1967L21.5937 15.2152C21.5312 15.0922 21.3749 15.0615 21.2812 15.1537L20.1249 15.8914C20.0312 15.9529 19.9999 16.1066 20.0624 16.1988L21.0937 17.8894C21.1249 17.9508 21.0937 18.0123 21.0624 18.0431L15.0624 21.8545C15.0312 21.8853 14.9687 21.8853 14.9374 21.8545L8.99993 18.0431C8.93743 18.0123 8.93743 17.9508 8.96868 17.8894L9.99993 16.1988C10.0624 16.1066 10.0312 15.9529 9.93743 15.8914L8.78118 15.1537C8.65618 15.0922 8.53118 15.123 8.46868 15.2152L6.68743 18.1967C6.56243 18.4119 6.62493 18.6886 6.84368 18.8115L14.8124 23.914C14.9687 24.0062 15.1562 24.0062 15.3124 23.914L23.2812 18.8115C23.4374 18.6578 23.4999 18.3812 23.3749 18.1967Z" fill="white"/>
<path d="M9.6562 13.5554L10.8125 14.2931C10.9375 14.3546 11.0625 14.3238 11.125 14.2316L14.875 7.96112C14.9062 7.89964 15.0312 7.89964 15.0625 7.96112L18.8125 14.2316C18.875 14.3546 19.0312 14.3853 19.125 14.2931L20.2812 13.5554C20.375 13.4939 20.4062 13.3402 20.3437 13.248L15.9375 5.748C15.8437 5.59431 15.7187 5.53284 15.5312 5.53284H14.4687C14.3125 5.53284 14.1562 5.62505 14.0625 5.748L9.5937 13.248C9.5312 13.3402 9.56245 13.4939 9.6562 13.5554Z" fill="#2AE7A8"/>
</svg>
