<svg width="30" height="30" viewBox="0 0 30 30" fill="none" xmlns="http://www.w3.org/2000/svg">
<path d="M15 30C23.2843 30 30 23.2843 30 15C30 6.71573 23.2843 0 15 0C6.71573 0 0 6.71573 0 15C0 23.2843 6.71573 30 15 30Z" fill="#008DDE"/>
<path d="M22.5272 16.2431C22.6187 16.2465 22.7101 16.2314 22.7957 16.1987C22.8813 16.166 22.9594 16.1164 23.0254 16.0528C23.0914 15.9893 23.1438 15.913 23.1797 15.8287C23.2155 15.7444 23.234 15.6537 23.234 15.5621C23.234 15.4704 23.2155 15.3797 23.1797 15.2954C23.1438 15.2111 23.0914 15.1348 23.0254 15.0713C22.9594 15.0077 22.8813 14.9581 22.7957 14.9254C22.7101 14.8927 22.6187 14.8776 22.5272 14.881H20.9709V13.3416H24.225C24.3166 13.345 24.4079 13.3299 24.4935 13.2972C24.5791 13.2645 24.6572 13.2149 24.7232 13.1513C24.7892 13.0877 24.8417 13.0115 24.8775 12.9271C24.9134 12.8428 24.9318 12.7521 24.9318 12.6605C24.9318 12.5689 24.9134 12.4782 24.8775 12.3938C24.8417 12.3095 24.7892 12.2333 24.7232 12.1697C24.6572 12.1061 24.5791 12.0565 24.4935 12.0238C24.4079 11.9911 24.3166 11.976 24.225 11.9794H20.9578C20.8918 11.2501 20.5861 10.5631 20.0885 10.0258C19.5909 9.4885 18.9293 9.13109 18.2072 9.0094V7.36971C18.2106 7.27814 18.1955 7.18683 18.1628 7.10123C18.1301 7.01563 18.0805 6.93751 18.0169 6.87152C17.9533 6.80554 17.8771 6.75305 17.7927 6.7172C17.7084 6.68135 17.6177 6.66288 17.5261 6.66288C17.4345 6.66288 17.3438 6.68135 17.2594 6.7172C17.1751 6.75305 17.0989 6.80554 17.0353 6.87152C16.9717 6.93751 16.9221 7.01563 16.8894 7.10123C16.8567 7.18683 16.8416 7.27814 16.845 7.36971V8.96346H15.3056V5.38127C15.309 5.28971 15.2939 5.19839 15.2612 5.11279C15.2285 5.02719 15.1789 4.94907 15.1153 4.88308C15.0517 4.8171 14.9755 4.76461 14.8912 4.72876C14.8068 4.69292 14.7162 4.67444 14.6245 4.67444C14.5329 4.67444 14.4422 4.69292 14.3579 4.72876C14.2735 4.76461 14.1973 4.8171 14.1337 4.88308C14.0702 4.94907 14.0205 5.02719 13.9878 5.11279C13.9551 5.19839 13.94 5.28971 13.9434 5.38127V8.96252H12.4031V7.36877C12.3966 7.19251 12.322 7.02565 12.1949 6.90326C12.0679 6.78087 11.8984 6.71249 11.722 6.71249C11.5456 6.71249 11.3761 6.78087 11.2491 6.90326C11.1221 7.02565 11.0475 7.19251 11.0409 7.36877V9.0094C10.3188 9.13109 9.65725 9.4885 9.15964 10.0258C8.66203 10.5631 8.35634 11.2501 8.29031 11.9794H4.44374C4.35218 11.976 4.26086 11.9911 4.17526 12.0238C4.08966 12.0565 4.01154 12.1061 3.94555 12.1697C3.87957 12.2333 3.82708 12.3095 3.79123 12.3938C3.75538 12.4782 3.73691 12.5689 3.73691 12.6605C3.73691 12.7521 3.75538 12.8428 3.79123 12.9271C3.82708 13.0115 3.87957 13.0877 3.94555 13.1513C4.01154 13.2149 4.08966 13.2645 4.17526 13.2972C4.26086 13.3299 4.35218 13.345 4.44374 13.3416H8.27812V14.881H6.72187C6.6303 14.8776 6.53899 14.8927 6.45339 14.9254C6.36779 14.9581 6.28966 15.0077 6.22368 15.0713C6.15769 15.1348 6.10521 15.2111 6.06936 15.2954C6.03351 15.3797 6.01503 15.4704 6.01503 15.5621C6.01503 15.6537 6.03351 15.7444 6.06936 15.8287C6.10521 15.913 6.15769 15.9893 6.22368 16.0528C6.28966 16.1164 6.36779 16.166 6.45339 16.1987C6.53899 16.2314 6.6303 16.2465 6.72187 16.2431H8.27812V17.7825H5.31281C5.22124 17.7791 5.12992 17.7942 5.04433 17.8269C4.95873 17.8596 4.8806 17.9092 4.81462 17.9728C4.74863 18.0364 4.69615 18.1126 4.6603 18.197C4.62445 18.2813 4.60597 18.372 4.60597 18.4636C4.60597 18.5552 4.62445 18.6459 4.6603 18.7303C4.69615 18.8146 4.74863 18.8908 4.81462 18.9544C4.8806 19.018 4.95873 19.0676 5.04433 19.1003C5.12992 19.133 5.22124 19.1481 5.31281 19.1447H8.29031C8.35634 19.8741 8.66203 20.561 9.15964 21.0983C9.65725 21.6356 10.3188 21.993 11.0409 22.1147V23.1741C11.0375 23.2657 11.0526 23.357 11.0853 23.4426C11.118 23.5282 11.1677 23.6063 11.2312 23.6723C11.2948 23.7383 11.371 23.7907 11.4554 23.8266C11.5397 23.8624 11.6304 23.8809 11.722 23.8809C11.8137 23.8809 11.9043 23.8624 11.9887 23.8266C12.073 23.7907 12.1492 23.7383 12.2128 23.6723C12.2764 23.6063 12.326 23.5282 12.3587 23.4426C12.3914 23.357 12.4065 23.2657 12.4031 23.1741V22.1607H13.9425V25.246C13.949 25.4222 14.0237 25.5891 14.1507 25.7115C14.2777 25.8339 14.4472 25.9023 14.6236 25.9023C14.8 25.9023 14.9695 25.8339 15.0965 25.7115C15.2235 25.5891 15.2981 25.4222 15.3047 25.246V22.1607H16.8441V23.7544C16.8407 23.846 16.8558 23.9373 16.8885 24.0229C16.9212 24.1085 16.9708 24.1866 17.0344 24.2526C17.0979 24.3186 17.1742 24.3711 17.2585 24.4069C17.3428 24.4428 17.4335 24.4612 17.5252 24.4612C17.6168 24.4612 17.7075 24.4428 17.7918 24.4069C17.8761 24.3711 17.9524 24.3186 18.0159 24.2526C18.0795 24.1866 18.1291 24.1085 18.1618 24.0229C18.1945 23.9373 18.2096 23.846 18.2062 23.7544V22.1157C18.9284 21.994 19.5899 21.6366 20.0875 21.0993C20.5851 20.562 20.8908 19.875 20.9569 19.1456H25.4672C25.5588 19.149 25.6501 19.1339 25.7357 19.1012C25.8213 19.0686 25.8994 19.0189 25.9654 18.9553C26.0314 18.8918 26.0838 18.8155 26.1197 18.7312C26.1555 18.6469 26.174 18.5562 26.174 18.4646C26.174 18.3729 26.1555 18.2822 26.1197 18.1979C26.0838 18.1136 26.0314 18.0373 25.9654 17.9738C25.8994 17.9102 25.8213 17.8606 25.7357 17.8279C25.6501 17.7952 25.5588 17.7801 25.4672 17.7835H20.9719V16.2441H22.5272V16.2431ZM19.8834 18.8513C19.8829 19.4404 19.6487 20.0053 19.2321 20.4218C18.8155 20.8384 18.2507 21.0727 17.6616 21.0732H11.5866C10.9974 21.0727 10.4326 20.8384 10.016 20.4218C9.59943 20.0053 9.36518 19.4404 9.36468 18.8513V12.2719C9.36518 11.6828 9.59943 11.1179 10.016 10.7013C10.4326 10.2848 10.9974 10.0505 11.5866 10.05H17.6616C18.2507 10.0505 18.8155 10.2848 19.2321 10.7013C19.6487 11.1179 19.8829 11.6828 19.8834 12.2719V18.8503V18.8513Z" fill="white"/>
<path d="M13.0322 11.6579C12.7691 11.6536 12.5059 11.6627 12.2438 11.6851C11.8294 11.7319 11.5247 12.1069 11.5116 12.5138C11.4909 13.4363 11.5078 14.3607 11.5022 15.2832C11.5153 15.7538 11.4703 16.2301 11.5397 16.696C11.6063 17.1122 12.0131 17.3804 12.4172 17.3794C13.6734 17.3879 14.9297 17.3822 16.1859 17.3832V17.9035H12.1406L11.6203 19.4644H15.6459C16.1166 19.4513 16.5919 19.4963 17.0587 19.4279C17.475 19.3613 17.7422 18.9544 17.7412 18.5504C17.7506 16.9069 17.7431 15.2635 17.7459 13.6191C17.7309 13.1785 17.7844 12.7294 17.6953 12.2944C17.6006 11.851 17.1253 11.6326 16.7053 11.6597H13.8216C13.5591 11.6644 13.2947 11.6588 13.0312 11.6569L13.0322 11.6579ZM13.0631 13.2207H16.185V15.8222H13.0631V13.2207Z" fill="white"/>
</svg>
