<svg width="30" height="30" viewBox="0 0 30 30" fill="none" xmlns="http://www.w3.org/2000/svg">
<path d="M15 30C23.2843 30 30 23.2843 30 15C30 6.71573 23.2843 0 15 0C6.71573 0 0 6.71573 0 15C0 23.2843 6.71573 30 15 30Z" fill="#5B6DEE"/>
<path d="M12.469 14.0818C11.946 14.0789 11.4239 14.1238 10.909 14.2161C11.3328 10.2969 14.5991 7.32929 18.4876 7.32959C20.8686 7.32959 22.5 8.49539 22.5 10.9092C22.5 13.323 20.5419 14.4888 17.685 14.4888C15.5763 14.4886 14.5781 14.0818 12.469 14.0818ZM12.315 15.5113C9.45825 15.5113 7.5 16.6771 7.5 19.0909C7.5 21.5047 9.1314 22.6705 11.5124 22.6705C15.4014 22.6705 18.6674 19.7032 19.091 15.784C18.5761 15.8763 18.054 15.9212 17.531 15.9183C15.422 15.9181 14.4237 15.5113 12.315 15.5113Z" fill="white"/>
</svg>
