<svg width="30" height="31" viewBox="0 0 30 31" fill="none" xmlns="http://www.w3.org/2000/svg">
<path d="M15 30.5C23.2843 30.5 30 23.7843 30 15.5C30 7.21573 23.2843 0.5 15 0.5C6.71573 0.5 0 7.21573 0 15.5C0 23.7843 6.71573 30.5 15 30.5Z" fill="black"/>
<path d="M21.6844 9.21126L19.4344 10.3588L8.56124 15.8966C8.40632 14.7065 8.58509 13.4968 9.07758 12.4024C9.57008 11.308 10.3569 10.3719 11.3504 9.69864C12.3438 9.02535 13.5048 8.64131 14.7038 8.58935C15.9028 8.53739 17.0926 8.81956 18.1406 9.40439L19.4287 8.74814L19.6209 8.6497C18.3989 7.76291 16.9486 7.24432 15.4414 7.15516C13.9342 7.06601 12.4329 7.41002 11.1148 8.14657C9.7968 8.88312 8.71705 9.98145 8.00309 11.3119C7.28913 12.6423 6.97077 14.1492 7.08562 15.6547C7.10711 15.9379 7.04434 16.2211 6.9052 16.4686C6.76607 16.7162 6.5568 16.9171 6.30374 17.0459L5.62405 17.3928V19.0091L7.62468 17.9891L8.27249 17.6581L8.91093 17.3328L20.3728 11.4922L21.6609 10.8369L24.3234 9.48032V7.86501L21.6844 9.21126ZM24.3244 11.0975L9.56343 18.6125L8.2753 19.2688L5.62499 20.6216V22.2369L8.25749 20.8963L10.5084 19.7488L21.3928 14.2025C21.5501 15.3944 21.3725 16.6066 20.8801 17.7033C20.3876 18.8 19.5996 19.738 18.6042 20.4123C17.6089 21.0866 16.4456 21.4706 15.2444 21.5213C14.0433 21.572 12.8517 21.2874 11.8031 20.6994L11.7234 20.7416L10.3266 21.4541C11.5488 22.3414 12.9994 22.8603 14.5071 22.9495C16.0148 23.0387 17.5165 22.6945 18.8348 21.9576C20.1531 21.2206 21.233 20.1217 21.9468 18.7907C22.6605 17.4597 22.9784 15.9522 22.8628 14.4463C22.8415 14.1634 22.9043 13.8805 23.0433 13.6331C23.1822 13.3858 23.3911 13.185 23.6437 13.0559L24.3244 12.7091V11.0984V11.0975Z" fill="white"/>
</svg>
