<svg width="30" height="31" viewBox="0 0 30 31" fill="none" xmlns="http://www.w3.org/2000/svg">
<path d="M15 30.5C23.2843 30.5 30 23.7843 30 15.5C30 7.21573 23.2843 0.5 15 0.5C6.71573 0.5 0 7.21573 0 15.5C0 23.7843 6.71573 30.5 15 30.5Z" fill="#8DC351"/>
<path d="M19.8816 10.3756C19.1541 8.52682 17.3297 8.35994 15.2053 8.77244L14.4488 6.13525L12.8438 6.59557L13.5806 9.16432C13.1588 9.28432 12.7294 9.41744 12.3028 9.54869L11.5622 6.96307L9.95813 7.42244L10.7128 10.0596C10.3678 10.1665 10.0284 10.2715 9.69563 10.3671L9.69281 10.3578L7.47844 10.9924L7.97063 12.7081C7.97063 12.7081 9.15 12.3443 9.13594 12.3724C9.78656 12.1859 10.1063 12.5028 10.2609 12.8112L11.1234 15.8149C11.1675 15.8028 11.2266 15.7878 11.2959 15.7774L11.1263 15.8262L12.3328 20.0356C12.3628 20.2484 12.3366 20.6093 11.8828 20.7406C11.9081 20.7528 10.7147 21.0743 10.7147 21.0743L10.9463 23.0834L13.035 22.4834C13.4241 22.3737 13.8084 22.2706 14.1844 22.1646L14.9503 24.8318L16.5534 24.3724L15.7969 21.7334C16.2269 21.6193 16.6557 21.5005 17.0831 21.3771L17.835 24.0049L19.4409 23.5446L18.6778 20.8821C21.3319 19.9531 23.0259 18.7315 22.5337 16.129C22.1381 14.0346 20.9175 13.399 19.2797 13.4703C20.0747 12.7296 20.4169 11.7284 19.8816 10.3765V10.3756ZM19.2722 16.7224C19.8441 18.7165 16.3659 19.4684 15.2784 19.7815L14.265 16.2471C15.3525 15.9349 18.675 14.644 19.2713 16.7234L19.2722 16.7224ZM17.0953 11.9506C17.6147 13.7646 14.7075 14.3693 13.8009 14.629L12.8822 11.4237C13.7878 11.164 16.5525 10.0596 17.0953 11.9515V11.9506Z" fill="white"/>
</svg>
