<svg width="30" height="30" viewBox="0 0 30 30" fill="none" xmlns="http://www.w3.org/2000/svg">
<path d="M15 30C23.2843 30 30 23.2843 30 15C30 6.71573 23.2843 0 15 0C6.71573 0 0 6.71573 0 15C0 23.2843 6.71573 30 15 30Z" fill="#000D2B"/>
<path d="M14.925 5.51208L10.689 7.99413L14.925 10.4762L19.2405 7.99413L14.925 5.51208ZM15.6216 18.7632V23.7272L21.375 20.445V15.48L15.6216 18.7632ZM19.9365 9.55504V14.52L15.621 17.0021V12.0371L19.9365 9.55504ZM9.54778 14.52L13.8633 17.0021V12.0371L9.54778 9.55504V14.52ZM9.54778 21.2453L13.8633 23.7273V18.7632L9.54778 16.2812V21.2451V21.2453Z" fill="white"/>
</svg>
