<svg width="30" height="30" viewBox="0 0 30 30" fill="none" xmlns="http://www.w3.org/2000/svg">
<circle cx="15" cy="15" r="15" fill="#41C6A7"/>
<path d="M16.8295 12.3727V10.2438H21.8739V7H8.13797V10.2438H13.1829V12.371C9.08284 12.5528 6 13.3365 6 14.2753C6 15.2141 9.08432 15.9978 13.1829 16.1807V23H16.8307V16.1801C20.9234 15.9978 24 15.2147 24 14.2767C24 13.3387 20.9234 12.5556 16.8307 12.3733L16.8295 12.3727ZM16.8307 15.6025V15.6008C16.7278 15.6071 16.199 15.6377 15.0216 15.6377C14.0803 15.6377 13.4181 15.6119 13.1847 15.6002V15.6031C9.56239 15.4482 6.85857 14.8394 6.85857 14.111C6.85857 13.3825 9.56269 12.7746 13.1847 12.6195V14.9966C13.422 15.0123 14.1005 15.0509 15.0371 15.0509C16.162 15.0509 16.7275 15.0057 16.8313 14.9966V12.6195C20.4465 12.7749 23.1441 13.3843 23.1441 14.1101C23.1441 14.836 20.4447 15.4454 16.8307 15.6008" fill="white"/>
</svg>
