<svg width="30" height="30" viewBox="0 0 30 30" fill="none" xmlns="http://www.w3.org/2000/svg">
<path d="M15 30C23.2843 30 30 23.2843 30 15C30 6.71573 23.2843 0 15 0C6.71573 0 0 6.71573 0 15C0 23.2843 6.71573 30 15 30Z" fill="black"/>
<path fill-rule="evenodd" clip-rule="evenodd" d="M16.3006 21.0244V24.5309C16.3006 25.0102 15.9123 25.3984 15.433 25.3984C15.2695 25.3984 15.1116 25.3559 14.9721 25.271L7.68612 20.812C7.17038 20.4965 6.85492 19.9323 6.85492 19.3257V15.9465C6.85492 15.5461 7.18253 15.2185 7.58273 15.2185C7.71011 15.2185 7.83777 15.255 7.94681 15.3217L15.5787 19.7685C16.0278 20.0294 16.3006 20.5086 16.3006 21.0244Z" fill="#01D494"/>
<path fill-rule="evenodd" clip-rule="evenodd" d="M19.7827 15.6493V22.7595C19.7827 22.9718 19.6737 23.166 19.4918 23.2631L17.8172 24.2034C17.7992 24.2156 17.7749 24.2277 17.7506 24.2338V20.2844C17.7506 19.7747 17.4837 19.3015 17.0408 19.0346L10.3432 15.0245V10.5716C10.3432 10.1711 10.6708 9.84363 11.071 9.84363C11.1984 9.84363 11.3261 9.8799 11.4351 9.94064L19.0611 14.3936C19.5099 14.6545 19.7827 15.1338 19.7827 15.6493Z" fill="#01D494"/>
<path fill-rule="evenodd" clip-rule="evenodd" d="M23.1256 20.7877C23.1256 21.0001 23.0104 21.1943 22.8223 21.2974L21.239 22.1527V14.9213C21.239 14.4056 20.9721 13.9386 20.5351 13.6715L13.6799 9.56436V5.3359C13.6799 5.20852 13.7161 5.08113 13.7768 4.97199C13.9832 4.62614 14.4261 4.50483 14.7718 4.7051L22.4037 9.13972C22.8528 9.40053 23.1256 9.87985 23.1256 10.3956V20.7877Z" fill="#01D494"/>
</svg>
