<svg width="30" height="30" viewBox="0 0 30 30" fill="none" xmlns="http://www.w3.org/2000/svg">
<circle cx="15" cy="15" r="15" fill="#FF8401"/>
<path d="M18.7812 14.3317C19.6693 13.8415 20.2249 12.978 20.0951 11.5396C19.9203 9.57382 18.3541 8.91465 16.3769 8.72693L16.3765 6.00024H14.8446L14.8441 8.65523C14.4411 8.65523 14.0302 8.66381 13.6212 8.6727L13.6209 6.00061L12.0903 6.00045L12.09 8.72647C11.7583 8.73381 11.4326 8.74079 11.1145 8.74079V8.73272L9.00146 8.73179L9.00175 10.5042C9.00175 10.5042 10.1331 10.4811 10.1144 10.5035C10.7347 10.504 10.9372 10.8943 10.9955 11.2312L10.9959 14.3375V18.7008C10.9686 18.9122 10.8537 19.2501 10.42 19.2507C10.4397 19.2695 9.30562 19.2505 9.30562 19.2505L9.00175 21.2324H10.995C11.3664 21.2329 11.7313 21.2391 12.0894 21.2422L12.0907 23.9998L13.6209 24.0002L13.6204 21.2716C14.0414 21.2809 14.4478 21.2849 14.8447 21.2844L14.8442 24.0002H16.3761L16.377 21.2473C18.952 21.087 20.7547 20.3841 20.9788 17.7635C21.1595 15.6537 20.2432 14.7119 18.7812 14.3317ZM13.6578 10.6238C14.5218 10.6238 17.239 10.3256 17.2394 12.2815C17.239 14.1566 14.5226 13.9375 13.6578 13.9375V10.6238ZM13.6571 19.2641L13.6578 15.6104C14.6959 15.6101 17.9518 15.2867 17.9522 17.4365C17.9526 19.498 14.6959 19.2633 13.6571 19.2641Z" fill="white"/>
</svg>
