<svg width="30" height="30" viewBox="0 0 30 30" fill="none" xmlns="http://www.w3.org/2000/svg">
<path d="M15 30C23.2843 30 30 23.2843 30 15C30 6.71573 23.2843 0 15 0C6.71573 0 0 6.71573 0 15C0 23.2843 6.71573 30 15 30Z" fill="#DF1A14"/>
<path d="M13.9313 10.8066C14.2191 10.7156 14.5463 10.8778 14.6653 11.161C14.9531 11.8191 15.2109 12.4969 15.5091 13.1541C15.6872 13.5488 16.2938 13.5994 16.5309 13.2356C16.9284 12.5775 17.2463 11.8791 17.6334 11.2106C17.9513 10.7963 18.5269 10.9988 18.9638 10.9585C19.4203 10.9285 19.7578 11.505 19.4991 11.8997C18.2484 14.2369 16.9884 16.5647 15.7378 18.9028C15.5288 19.3275 14.8444 19.3275 14.6559 18.8822C14.3775 18.2044 14.1591 17.4956 13.8909 16.8178C13.7316 16.3725 13.0472 16.3022 12.8194 16.7269C12.4322 17.4253 12.0947 18.1538 11.7075 18.8419C11.5191 19.155 11.1216 19.1044 10.8141 19.1044C10.5159 19.0847 10.1588 19.1756 9.93095 18.9225C9.83114 18.8192 9.76823 18.6858 9.75195 18.5431C9.73568 18.4004 9.76696 18.2563 9.84094 18.1331C11.0128 15.9169 12.2034 13.6913 13.3753 11.4544C13.5141 11.2013 13.6331 10.8872 13.9313 10.8075V10.8066ZM9.84094 10.9791C10.1881 10.9588 10.5362 10.9588 10.8834 10.9791C11.2706 11.0194 11.5191 11.5153 11.3306 11.8697C10.1681 14.0653 8.9972 16.2506 7.83657 18.4369C7.69688 18.6806 7.58813 19.0041 7.29001 19.0838C6.94313 19.1353 6.58594 19.1053 6.23813 19.1053C5.81157 19.125 5.45438 18.5681 5.71219 18.1941C6.92344 15.9272 8.13376 13.65 9.34501 11.3738C9.44438 11.1816 9.61313 10.9894 9.84188 10.9791H9.84094ZM22.1597 10.9988C22.5366 10.8872 22.9341 10.9688 23.3213 10.9378C23.6184 10.9481 23.9963 10.8872 24.2147 11.1506C24.4828 11.4244 24.4022 11.94 24.0647 12.1125C23.3803 12.5475 22.7053 13.0125 22.0116 13.4381C21.5738 13.741 20.9288 13.2253 21.1172 12.7191C21.2859 12.3141 21.5241 11.941 21.7134 11.5453C21.8222 11.3428 21.9216 11.0803 22.1597 10.9988ZM18.8738 17.0503C19.0725 16.9285 19.3209 16.9697 19.5094 17.071C20.0353 17.3335 20.5613 17.6175 21.0975 17.8706C21.3263 17.9719 21.5644 18.1641 21.5738 18.4369C21.6141 18.8016 21.3056 19.155 20.9484 19.125C20.1844 19.125 19.4203 19.1344 18.6656 19.125C18.2888 19.125 17.9906 18.6797 18.1294 18.316C18.2288 18.0525 18.3778 17.8191 18.4969 17.566C18.5859 17.3747 18.675 17.1413 18.8738 17.0503Z" fill="white"/>
</svg>
