<svg width="30" height="30" viewBox="0 0 30 30" fill="none" xmlns="http://www.w3.org/2000/svg">
<path d="M15 30C23.2843 30 30 23.2843 30 15C30 6.71573 23.2843 0 15 0C6.71573 0 0 6.71573 0 15C0 23.2843 6.71573 30 15 30Z" fill="url(#paint0_linear_608_395)"/>
<path fill-rule="evenodd" clip-rule="evenodd" d="M10.6275 9.75V21H20.0025L10.6275 9.75Z" fill="url(#paint1_linear_608_395)"/>
<path fill-rule="evenodd" clip-rule="evenodd" d="M1.25247 21H10.6275V9.75L1.25247 21Z" fill="white"/>
<path fill-rule="evenodd" clip-rule="evenodd" d="M3 24C3.855 25.1325 4.8675 26.145 6 27H24C25.1325 26.145 26.145 25.1325 27 24H3Z" fill="#FC9965"/>
<path fill-rule="evenodd" clip-rule="evenodd" d="M5.99994 27C8.50494 28.8825 11.6249 30 14.9999 30C18.3749 30 21.4949 28.8825 23.9999 27H5.99994Z" fill="#FF2D55"/>
<path fill-rule="evenodd" clip-rule="evenodd" d="M20.1226 15.75V24H27L20.1226 15.75Z" fill="url(#paint2_linear_608_395)"/>
<path fill-rule="evenodd" clip-rule="evenodd" d="M20.1225 21H1.25247C1.71747 22.0725 2.30997 23.0775 2.99997 24H20.13V21H20.1225Z" fill="#FFBC5B"/>
<path fill-rule="evenodd" clip-rule="evenodd" d="M13.2525 24H20.1225V15.75L13.2525 24Z" fill="white"/>
<path d="M20.1226 13.5C22.1936 13.5 23.8726 11.8211 23.8726 9.75C23.8726 7.67893 22.1936 6 20.1226 6C18.0515 6 16.3726 7.67893 16.3726 9.75C16.3726 11.8211 18.0515 13.5 20.1226 13.5Z" fill="#FFC95B"/>
<path d="M10.6275 7.5C11.663 7.5 12.5025 6.66053 12.5025 5.625C12.5025 4.58947 11.663 3.75 10.6275 3.75C9.59194 3.75 8.75247 4.58947 8.75247 5.625C8.75247 6.66053 9.59194 7.5 10.6275 7.5Z" fill="#FFC95B"/>
<defs>
<linearGradient id="paint0_linear_608_395" x1="25.6065" y1="4.3935" x2="4.3935" y2="25.6065" gradientUnits="userSpaceOnUse">
<stop stop-color="#FF2D55"/>
<stop offset="1" stop-color="#FFBC5B"/>
</linearGradient>
<linearGradient id="paint1_linear_608_395" x1="15.3118" y1="9.75" x2="15.3118" y2="21" gradientUnits="userSpaceOnUse">
<stop stop-color="#A524B3"/>
<stop offset="1" stop-color="#FF2D55"/>
</linearGradient>
<linearGradient id="paint2_linear_608_395" x1="23.559" y1="15.75" x2="23.559" y2="24" gradientUnits="userSpaceOnUse">
<stop stop-color="#A524B3"/>
<stop offset="1" stop-color="#FF2D55"/>
</linearGradient>
</defs>
</svg>
