<svg width="30" height="30" viewBox="0 0 30 30" fill="none" xmlns="http://www.w3.org/2000/svg">
<path d="M15 30C23.2843 30 30 23.2843 30 15C30 6.71573 23.2843 0 15 0C6.71573 0 0 6.71573 0 15C0 23.2843 6.71573 30 15 30Z" fill="#F80000"/>
<path d="M19.2188 15.7894L12.9412 24.375L13.1728 17.3991H11.7188L12.3131 11.2753L18.9544 10.3603L16.7738 15.915L19.2188 15.7894ZM14.0644 21.8813V20.2406C14.0644 20.1188 13.9612 20.0194 13.8337 20.0194C13.7062 20.0194 13.6022 20.1178 13.6022 20.2397V21.8813C13.6022 22.0031 13.7053 22.1025 13.8337 22.1025C13.9622 22.1025 14.0644 22.0031 14.0644 21.8813ZM12.3469 16.9256H13.6687L13.6078 19.4503C13.6069 19.5169 13.6331 19.5816 13.6819 19.6284C13.7306 19.6753 13.7972 19.7034 13.8666 19.7034H13.8778C13.9438 19.7047 14.0078 19.6802 14.0559 19.635C14.1041 19.5898 14.1327 19.5275 14.1356 19.4616L14.1966 16.4831H12.8747L13.3181 11.5903C13.3228 11.5341 13.3031 11.4778 13.2628 11.4356C13.2225 11.3934 13.1662 11.37 13.1062 11.37H13.0687C13.0168 11.3689 12.9663 11.3873 12.9271 11.4214C12.888 11.4556 12.8629 11.5031 12.8569 11.5547L12.3469 16.9256ZM12.3469 10.7381L14.7919 8.71875C14.9231 6.69844 13.6013 6.3825 13.6013 6.3825L13.8 5.625C15.9806 6.25594 15.6506 8.655 15.6506 8.655L18.8222 9.98063L12.3469 10.7381Z" fill="white"/>
</svg>
