<svg width="48" height="48" viewBox="0 0 48 48" fill="none" xmlns="http://www.w3.org/2000/svg">
<path d="M42.7119 11.0689L43.3405 11.8466C43.5754 11.6568 43.7119 11.3709 43.7119 11.0689C43.7119 10.7669 43.5754 10.4811 43.3405 10.2912L42.7119 11.0689ZM30.5798 20.8751H29.5798C29.5798 21.2605 29.8012 21.6115 30.1489 21.7775C30.4966 21.9436 30.9088 21.8951 31.2085 21.6529L30.5798 20.8751ZM30.5798 1.2627L31.2085 0.484982C30.9088 0.242766 30.4966 0.194265 30.1489 0.360304C29.8012 0.526343 29.5798 0.877381 29.5798 1.2627L30.5798 1.2627ZM30.5798 7.02532V8.02532C31.1321 8.02532 31.5798 7.57761 31.5798 7.02532H30.5798ZM6.31592 29.6718H5.31592C5.31592 30.0581 5.53843 30.4099 5.88749 30.5754C6.23655 30.7409 6.64972 30.6906 6.94882 30.4461L6.31592 29.6718ZM14.459 23.0153L15.0919 23.7895C15.2943 23.624 15.4239 23.3858 15.4528 23.1259L14.459 23.0153ZM30.5798 15.1134H31.5798C31.5798 14.5611 31.1321 14.1134 30.5798 14.1134V15.1134ZM42.0833 10.2912L29.9512 20.0974L31.2085 21.6529L43.3405 11.8466L42.0833 10.2912ZM29.9512 2.04041L42.0833 11.8466L43.3405 10.2912L31.2085 0.484982L29.9512 2.04041ZM31.5798 7.02532V1.2627H29.5798V7.02532H31.5798ZM23.3008 8.02532H30.5798V6.02532H23.3008V8.02532ZM7.31592 25.1136C7.31592 16.2027 14.5518 8.02532 23.3008 8.02532V6.02532C13.2889 6.02532 5.31592 15.2634 5.31592 25.1136H7.31592ZM7.31592 29.6718V25.1136H5.31592V29.6718H7.31592ZM13.8261 22.2411L5.68302 28.8976L6.94882 30.4461L15.0919 23.7895L13.8261 22.2411ZM23.3008 14.1134C18.2084 14.1134 14.0155 17.9587 13.4651 22.9047L15.4528 23.1259C15.8918 19.1813 19.2387 16.1134 23.3008 16.1134V14.1134ZM30.5798 14.1134H23.3008V16.1134H30.5798V14.1134ZM31.5798 20.8751V15.1134H29.5798V20.8751H31.5798Z" fill="#3139CE"/>
<path d="M6.31644 36.9291L5.68782 36.1514C5.45293 36.3413 5.31644 36.6271 5.31644 36.9291C5.31644 37.2311 5.45293 37.517 5.68782 37.7068L6.31644 36.9291ZM18.4485 27.1229H19.4485C19.4485 26.7376 19.2271 26.3866 18.8794 26.2205C18.5317 26.0545 18.1195 26.103 17.8199 26.3452L18.4485 27.1229ZM18.4485 46.7354L17.8199 47.5131C18.1195 47.7553 18.5317 47.8038 18.8794 47.6377C19.2271 47.4717 19.4485 47.1207 19.4485 46.7354H18.4485ZM18.4485 40.9726V39.9726C17.8962 39.9726 17.4485 40.4204 17.4485 40.9726H18.4485ZM42.7124 18.3261H43.7124C43.7124 17.9428 43.4932 17.5931 43.1481 17.4261C42.8031 17.259 42.3929 17.304 42.0921 17.5418L42.7124 18.3261ZM34.5924 24.7472L33.9721 23.9628C33.7554 24.1342 33.6192 24.3876 33.596 24.6629L34.5924 24.7472ZM18.4485 32.8846H17.4485C17.4485 33.4369 17.8962 33.8846 18.4485 33.8846V32.8846ZM6.94506 37.7068L19.0771 27.9006L17.8199 26.3452L5.68782 36.1514L6.94506 37.7068ZM19.0771 45.9576L6.94506 36.1514L5.68782 37.7068L17.8199 47.5131L19.0771 45.9576ZM17.4485 40.9726V46.7354H19.4485V40.9726H17.4485ZM25.7275 39.9726H18.4485V41.9726H25.7275V39.9726ZM41.7124 22.8844C41.7124 31.7952 34.4766 39.9726 25.7275 39.9726V41.9726C35.7395 41.9726 43.7124 32.7345 43.7124 22.8844H41.7124ZM41.7124 18.3261V22.8844H43.7124V18.3261H41.7124ZM35.2127 25.5316L43.3327 19.1105L42.0921 17.5418L33.9721 23.9628L35.2127 25.5316ZM25.7275 33.8846C30.9094 33.8846 35.1602 29.9029 35.5889 24.8314L33.596 24.6629C33.2541 28.7077 29.8613 31.8846 25.7275 31.8846V33.8846ZM18.4485 33.8846H25.7275V31.8846H18.4485V33.8846ZM17.4485 27.1229V32.8846H19.4485V27.1229H17.4485Z" fill="#3139CE"/>
</svg>
