<svg width="48" height="48" viewBox="0 0 48 48" fill="none" xmlns="http://www.w3.org/2000/svg">
<path d="M31.9583 9.6116C31.9583 8.45894 32.6119 7.406 33.6449 6.89466L39.5521 3.9706C40.8954 3.30566 42.4698 4.28302 42.4698 5.78189V30.1292C42.4698 31.2818 41.8161 32.3348 40.7831 32.8461L34.8759 35.7702C33.5326 36.4351 31.9583 35.4577 31.9583 33.9589V9.6116Z" stroke="#3139CE" stroke-width="2"/>
<path d="M27.7537 9.6116C27.7537 8.45894 27.1 7.406 26.067 6.89466L20.1598 3.9706C18.8165 3.30566 17.2421 4.28302 17.2421 5.78189V30.1292C17.2421 31.2818 17.8958 32.3348 18.9288 32.8461L24.836 35.7702C26.1793 36.4351 27.7537 35.4577 27.7537 33.9589V9.6116Z" stroke="#3139CE" stroke-width="2"/>
<path d="M2.52637 9.6116C2.52637 8.45894 3.18004 7.406 4.21306 6.89466L10.1202 3.9706C11.4636 3.30566 13.0379 4.28302 13.0379 5.78189V30.1292C13.0379 31.2818 12.3842 32.3348 11.3512 32.8461L5.44401 35.7702C4.1007 36.4351 2.52637 35.4577 2.52637 33.9589V9.6116Z" stroke="#3139CE" stroke-width="2"/>
<mask id="path-4-outside-1_626_324" maskUnits="userSpaceOnUse" x="31.01" y="26.6553" width="17" height="21" fill="black">
<rect fill="white" x="31.01" y="26.6553" width="17" height="21"/>
<path d="M45.6238 34.9985C45.6238 39.8425 41.4192 44.5727 39.3169 45.4737C37.2146 44.5727 33.01 39.8425 33.01 34.9985C33.01 31.4952 35.8337 28.6553 39.3169 28.6553C42.8001 28.6553 45.6238 31.4952 45.6238 34.9985Z"/>
</mask>
<path d="M45.6238 34.9985C45.6238 39.8425 41.4192 44.5727 39.3169 45.4737C37.2146 44.5727 33.01 39.8425 33.01 34.9985C33.01 31.4952 35.8337 28.6553 39.3169 28.6553C42.8001 28.6553 45.6238 31.4952 45.6238 34.9985Z" fill="white"/>
<path d="M39.3169 45.4737L38.5291 47.312C39.0322 47.5276 39.6017 47.5276 40.1048 47.312L39.3169 45.4737ZM43.6238 34.9985C43.6238 36.871 42.794 38.8699 41.6136 40.5774C40.3957 42.3392 39.0831 43.398 38.5291 43.6354L40.1048 47.312C41.653 46.6484 43.494 44.8916 44.9039 42.852C46.3514 40.7582 47.6238 37.9699 47.6238 34.9985H43.6238ZM40.1048 43.6354C39.5507 43.398 38.2382 42.3392 37.0203 40.5774C35.8399 38.8699 35.01 36.871 35.01 34.9985H31.01C31.01 37.9699 32.2825 40.7582 33.7299 42.852C35.1399 44.8916 36.9808 46.6484 38.5291 47.312L40.1048 43.6354ZM35.01 34.9985C35.01 32.589 36.9491 30.6553 39.3169 30.6553V26.6553C34.7183 26.6553 31.01 30.4015 31.01 34.9985H35.01ZM39.3169 30.6553C41.6848 30.6553 43.6238 32.589 43.6238 34.9985H47.6238C47.6238 30.4015 43.9155 26.6553 39.3169 26.6553V30.6553Z" fill="#3139CE" mask="url(#path-4-outside-1_626_324)"/>
<circle cx="39.3168" cy="35.1127" r="2.62788" fill="white" stroke="#3139CE" stroke-width="2"/>
</svg>
