<svg width="48" height="48" viewBox="0 0 48 48" fill="none" xmlns="http://www.w3.org/2000/svg">
<path fill-rule="evenodd" clip-rule="evenodd" d="M13 13.1514C13 7.28335 17.701 2.52637 23.5 2.52637C29.299 2.52637 34 7.28334 34 13.1514V19.5264H13V13.1514ZM23.5 6.77637C20.0206 6.77637 17.2 9.63055 17.2 13.1514V15.2764H29.8V13.1514C29.8 9.63055 26.9794 6.77637 23.5 6.77637Z" stroke="#3139CE" stroke-width="2"/>
<path fill-rule="evenodd" clip-rule="evenodd" d="M14.75 14.5264C9.91751 14.5264 6 18.7038 6 23.857V32.1958C6 37.3489 9.91751 41.5264 14.75 41.5264H32.25C37.0825 41.5264 41 37.3489 41 32.1958V23.857C41 18.7038 37.0825 14.5264 32.25 14.5264H14.75ZM27.073 26.3145C27.073 27.351 26.6224 28.2824 25.9063 28.9232V31.7892C25.9063 33.0779 24.8617 34.1226 23.573 34.1226C22.2843 34.1226 21.2397 33.0779 21.2397 31.7892V28.9232C20.5236 28.2824 20.073 27.351 20.073 26.3145C20.073 24.3815 21.64 22.8145 23.573 22.8145C25.506 22.8145 27.073 24.3815 27.073 26.3145Z" fill="white"/>
<path d="M25.9063 28.9232L25.2394 28.1781C25.0275 28.3678 24.9063 28.6388 24.9063 28.9232H25.9063ZM21.2397 28.9232H22.2397C22.2397 28.6388 22.1185 28.3678 21.9066 28.1781L21.2397 28.9232ZM7 23.857C7 19.1946 10.5293 15.5264 14.75 15.5264V13.5264C9.30568 13.5264 5 18.213 5 23.857H7ZM7 32.1958V23.857H5V32.1958H7ZM14.75 40.5264C10.5293 40.5264 7 36.8581 7 32.1958H5C5 37.8397 9.30568 42.5264 14.75 42.5264V40.5264ZM32.25 40.5264H14.75V42.5264H32.25V40.5264ZM40 32.1958C40 36.8581 36.4707 40.5264 32.25 40.5264V42.5264C37.6943 42.5264 42 37.8397 42 32.1958H40ZM40 23.857V32.1958H42V23.857H40ZM32.25 15.5264C36.4707 15.5264 40 19.1946 40 23.857H42C42 18.213 37.6943 13.5264 32.25 13.5264V15.5264ZM14.75 15.5264H32.25V13.5264H14.75V15.5264ZM26.5732 29.6684C27.4923 28.8458 28.073 27.6473 28.073 26.3145H26.073C26.073 27.0548 25.7525 27.7189 25.2394 28.1781L26.5732 29.6684ZM26.9063 31.7892V28.9232H24.9063V31.7892H26.9063ZM23.573 35.1226C25.4139 35.1226 26.9063 33.6302 26.9063 31.7892H24.9063C24.9063 32.5256 24.3094 33.1226 23.573 33.1226V35.1226ZM20.2397 31.7892C20.2397 33.6302 21.732 35.1226 23.573 35.1226V33.1226C22.8366 33.1226 22.2397 32.5256 22.2397 31.7892H20.2397ZM20.2397 28.9232V31.7892H22.2397V28.9232H20.2397ZM19.073 26.3145C19.073 27.6473 19.6537 28.8458 20.5728 29.6684L21.9066 28.1781C21.3935 27.7189 21.073 27.0548 21.073 26.3145H19.073ZM23.573 21.8145C21.0877 21.8145 19.073 23.8292 19.073 26.3145H21.073C21.073 24.9337 22.1923 23.8145 23.573 23.8145V21.8145ZM28.073 26.3145C28.073 23.8292 26.0583 21.8145 23.573 21.8145V23.8145C24.9537 23.8145 26.073 24.9337 26.073 26.3145H28.073Z" fill="#3139CE"/>
</svg>
