<svg width="48" height="48" viewBox="0 0 48 48" fill="none" xmlns="http://www.w3.org/2000/svg">
<path fill-rule="evenodd" clip-rule="evenodd" d="M26.1085 4.54771C25.4599 2.48409 22.5395 2.4841 21.8909 4.54771L18.4879 15.3745C18.1984 16.2956 17.3446 16.9223 16.3791 16.9223H5.21482C3.09124 16.9223 2.1893 19.625 3.88728 20.9003L8.93422 24.6909H18.6842H22.9273V21.2193L29.9967 27.1263L22.9273 33.0334V29.563H18.6842H13.9274C13.9257 29.7782 13.8925 29.9955 13.8256 30.2082L10.358 41.2409C9.71377 43.2905 12.0765 44.9615 13.7943 43.6713L22.6722 37.0033C23.4586 36.4126 24.5408 36.4126 25.3272 37.0033L34.2051 43.6713C35.9229 44.9615 38.2856 43.2905 37.6414 41.2409L34.1738 30.2082C33.8929 29.3144 34.2059 28.3406 34.9551 27.7779L44.1121 20.9003C45.8101 19.625 44.9082 16.9223 42.7846 16.9223H31.6203C30.6548 16.9223 29.801 16.2956 29.5115 15.3745L26.1085 4.54771Z" fill="white"/>
<path d="M21.8909 4.54771L20.9369 4.24787V4.24787L21.8909 4.54771ZM26.1085 4.54771L25.1545 4.84755V4.84755L26.1085 4.54771ZM18.4879 15.3745L19.4419 15.6744H19.4419L18.4879 15.3745ZM3.88728 20.9003L4.48783 20.1007H4.48783L3.88728 20.9003ZM8.93422 24.6909L8.33367 25.4905C8.50687 25.6206 8.71762 25.6909 8.93422 25.6909V24.6909ZM22.9273 24.6909V25.6909C23.4795 25.6909 23.9273 25.2432 23.9273 24.6909H22.9273ZM22.9273 21.2193L23.5685 20.4519C23.2705 20.2029 22.8554 20.1489 22.5037 20.3134C22.152 20.4778 21.9273 20.831 21.9273 21.2193H22.9273ZM29.9967 27.1263L30.6379 27.8937C30.8652 27.7037 30.9967 27.4227 30.9967 27.1263C30.9967 26.83 30.8652 26.549 30.6379 26.359L29.9967 27.1263ZM22.9273 33.0334H21.9273C21.9273 33.4217 22.152 33.7748 22.5037 33.9393C22.8554 34.1037 23.2705 34.0497 23.5685 33.8008L22.9273 33.0334ZM22.9273 29.563H23.9273C23.9273 29.0107 23.4795 28.563 22.9273 28.563V29.563ZM13.9274 29.563V28.563C13.3782 28.563 12.9317 29.0059 12.9274 29.5551L13.9274 29.563ZM13.8256 30.2082L12.8716 29.9084L12.8716 29.9084L13.8256 30.2082ZM10.358 41.2409L9.40397 40.9411V40.9411L10.358 41.2409ZM13.7943 43.6713L13.1938 42.8717H13.1938L13.7943 43.6713ZM22.6722 37.0033L23.2727 37.8029H23.2727L22.6722 37.0033ZM25.3272 37.0033L24.7267 37.8029L25.3272 37.0033ZM34.2051 43.6713L34.8056 42.8717L34.2051 43.6713ZM37.6414 41.2409L38.5954 40.9411V40.9411L37.6414 41.2409ZM34.1738 30.2082L35.1278 29.9084L34.1738 30.2082ZM34.9551 27.7779L34.3545 26.9783H34.3545L34.9551 27.7779ZM44.1121 20.9003L43.5116 20.1007H43.5116L44.1121 20.9003ZM29.5115 15.3745L28.5575 15.6744L29.5115 15.3745ZM22.8449 4.84756C23.2001 3.71748 24.7993 3.71748 25.1545 4.84755L27.0625 4.24787C26.1205 1.2507 21.8789 1.25072 20.9369 4.24787L22.8449 4.84756ZM19.4419 15.6744L22.8449 4.84756L20.9369 4.24787L17.5339 15.0747L19.4419 15.6744ZM16.3791 17.9223C17.7814 17.9223 19.0215 17.0122 19.4419 15.6744L17.5339 15.0747C17.3754 15.5791 16.9079 15.9223 16.3791 15.9223V17.9223ZM5.21482 17.9223H16.3791V15.9223H5.21482V17.9223ZM4.48783 20.1007C3.55799 19.4023 4.0519 17.9223 5.21482 17.9223V15.9223C2.13058 15.9223 0.820615 19.8476 3.28673 21.6999L4.48783 20.1007ZM9.53477 23.8913L4.48783 20.1007L3.28673 21.6999L8.33367 25.4905L9.53477 23.8913ZM8.93422 25.6909H18.6842V23.6909H8.93422V25.6909ZM18.6842 25.6909H22.9273V23.6909H18.6842V25.6909ZM23.9273 24.6909V21.2193H21.9273V24.6909H23.9273ZM22.286 21.9866L29.3555 27.8937L30.6379 26.359L23.5685 20.4519L22.286 21.9866ZM29.3555 26.359L22.286 32.266L23.5685 33.8008L30.6379 27.8937L29.3555 26.359ZM23.9273 33.0334V29.563H21.9273V33.0334H23.9273ZM22.9273 28.563H18.6842V30.563H22.9273V28.563ZM18.6842 28.563H13.9274V30.563H18.6842V28.563ZM14.7796 30.5081C14.8766 30.1996 14.9249 29.8838 14.9274 29.5709L12.9274 29.5551C12.9265 29.6726 12.9084 29.7914 12.8716 29.9084L14.7796 30.5081ZM11.3119 41.5408L14.7796 30.5081L12.8716 29.9084L9.40397 40.9411L11.3119 41.5408ZM13.1938 42.8717C12.253 43.5782 10.9592 42.6632 11.3119 41.5408L9.40397 40.9411C8.46836 43.9178 11.8999 46.3448 14.3949 44.4708L13.1938 42.8717ZM22.0716 36.2037L13.1938 42.8717L14.3949 44.4708L23.2727 37.8029L22.0716 36.2037ZM25.9278 36.2037C24.7855 35.3458 23.2139 35.3458 22.0716 36.2037L23.2727 37.8029C23.7034 37.4794 24.296 37.4794 24.7267 37.8029L25.9278 36.2037ZM34.8056 42.8717L25.9278 36.2037L24.7267 37.8029L33.6045 44.4708L34.8056 42.8717ZM36.6875 41.5408C37.0402 42.6632 35.7464 43.5782 34.8056 42.8717L33.6045 44.4708C36.0995 46.3448 39.531 43.9178 38.5954 40.9411L36.6875 41.5408ZM33.2198 30.5081L36.6875 41.5408L38.5954 40.9411L35.1278 29.9084L33.2198 30.5081ZM34.3545 26.9783C33.2665 27.7956 32.8118 29.2099 33.2198 30.5081L35.1278 29.9084C34.9739 29.4189 35.1454 28.8856 35.5556 28.5775L34.3545 26.9783ZM43.5116 20.1007L34.3545 26.9783L35.5556 28.5775L44.7127 21.6999L43.5116 20.1007ZM42.7846 17.9223C43.9475 17.9223 44.4414 19.4023 43.5116 20.1007L44.7127 21.6999C47.1788 19.8476 45.8688 15.9223 42.7846 15.9223V17.9223ZM31.6203 17.9223H42.7846V15.9223H31.6203V17.9223ZM28.5575 15.6744C28.9779 17.0122 30.218 17.9223 31.6203 17.9223V15.9223C31.0915 15.9223 30.624 15.5791 30.4654 15.0747L28.5575 15.6744ZM25.1545 4.84755L28.5575 15.6744L30.4655 15.0747L27.0625 4.24787L25.1545 4.84755Z" fill="#3139CE"/>
</svg>
