<svg width="48" height="48" viewBox="0 0 48 48" fill="none" xmlns="http://www.w3.org/2000/svg">
<rect width="15.5083" height="16.6121" rx="7.75417" transform="matrix(-1 0 0 1 18.0283 21.6782)" fill="white" stroke="#3139CE" stroke-width="2"/>
<path d="M33.0608 11.5444C33.0608 6.56387 28.9749 2.52637 23.9944 2.52637C19.0138 2.52637 14.9279 6.56387 14.9279 11.5444C14.9279 16.5249 19.0138 20.5624 23.9944 20.5624C28.9749 20.5624 33.0608 16.5249 33.0608 11.5444Z" fill="white" stroke="#3139CE" stroke-width="2"/>
<path d="M15.6433 16.3381C15.6433 13.3892 13.224 10.9985 10.275 10.9985C7.32606 10.9985 4.90676 13.3892 4.90676 16.3381C4.90676 19.2871 7.32606 21.6777 10.275 21.6777C13.224 21.6777 15.6433 19.2871 15.6433 16.3381Z" fill="white" stroke="#3139CE" stroke-width="2"/>
<rect x="29.959" y="21.6782" width="15.5083" height="16.6121" rx="7.75417" fill="white" stroke="#3139CE" stroke-width="2"/>
<path d="M35.3259 32.0069C35.3259 25.7478 30.2519 20.6738 23.9929 20.6738C17.7338 20.6738 12.6598 25.7478 12.6598 32.0069V34.1403C12.6598 40.3994 17.7338 45.4734 23.9929 45.4734C30.2519 45.4734 35.3259 40.3994 35.3259 34.1403V32.0069Z" fill="white" stroke="#3139CE" stroke-width="2"/>
<path d="M32.3445 16.3381C32.3445 13.3892 34.7638 10.9985 37.7128 10.9985C40.6617 10.9985 43.081 13.3892 43.081 16.3381C43.081 19.2871 40.6617 21.6777 37.7128 21.6777C34.7638 21.6777 32.3445 19.2871 32.3445 16.3381Z" fill="white" stroke="#3139CE" stroke-width="2"/>
</svg>
