<svg width="44" height="44" viewBox="0 0 44 44" fill="none" xmlns="http://www.w3.org/2000/svg">
<g clip-path="url(#clip0_627_762)">
<path fill-rule="evenodd" clip-rule="evenodd" d="M33.7812 11.2803C34.0741 10.9874 34.0741 10.5126 33.7812 10.2197C33.4883 9.92678 33.0134 9.92678 32.7205 10.2197L22.0004 20.9398L11.2803 10.2197C10.9874 9.92678 10.5126 9.92678 10.2197 10.2197C9.92678 10.5126 9.92678 10.9874 10.2197 11.2803L20.9398 22.0004L10.2197 32.7205C9.92678 33.0134 9.92678 33.4883 10.2197 33.7812C10.5126 34.0741 10.9874 34.0741 11.2803 33.7812L22.0004 23.0611L32.7205 33.7812C33.0134 34.0741 33.4883 34.0741 33.7812 33.7812C34.0741 33.4883 34.0741 33.0134 33.7812 32.7205L23.0611 22.0004L33.7812 11.2803Z" fill="#E6E6E6"/>
</g>
<defs>
<clipPath id="clip0_627_762">
<rect width="44" height="44" fill="white"/>
</clipPath>
</defs>
</svg>
