<svg width="28" height="34" viewBox="0 0 28 34" fill="none" xmlns="http://www.w3.org/2000/svg">
<path d="M13.9995 0.374756C10.5364 0.378865 7.21627 1.75641 4.76747 4.20521C2.31866 6.65402 0.941121 9.97413 0.937012 13.4373C0.937012 24.6141 12.812 33.0565 13.3176 33.4102C13.5176 33.5499 13.7556 33.6248 13.9995 33.6248C14.2434 33.6248 14.4814 33.5499 14.6814 33.4102C15.187 33.0565 27.062 24.6141 27.062 13.4373C27.0579 9.97413 25.6804 6.65402 23.2316 4.20521C20.7828 1.75641 17.4626 0.378865 13.9995 0.374756ZM14.0004 8.68769C14.9398 8.68769 15.8582 8.96627 16.6393 9.48821C17.4205 10.0101 18.0293 10.752 18.3888 11.6199C18.7483 12.4879 18.8424 13.443 18.6591 14.3644C18.4758 15.2858 18.0234 16.1321 17.3591 16.7964C16.6948 17.4607 15.8485 17.9131 14.9271 18.0964C14.0057 18.2797 13.0506 18.1856 12.1826 17.8261C11.3147 17.4666 10.5728 16.8578 10.0509 16.0766C9.52896 15.2955 9.25038 14.3771 9.25038 13.4377C9.25036 12.8139 9.37321 12.1962 9.61192 11.6199C9.85062 11.0436 10.2005 10.52 10.6416 10.0789C11.0827 9.63781 11.6063 9.28793 12.1826 9.04922C12.7589 8.81052 13.3766 8.68767 14.0004 8.68769Z" fill="#3139CE"/>
</svg>
